<svg width="22" height="22" viewBox="0 0 22 22" fill="none" xmlns="http://www.w3.org/2000/svg">
<g id="Iconsax/Bold/call">
<path id="Vector" d="M10.1292 13.7043L8.43334 15.4002C8.07584 15.7577 7.50751 15.7577 7.14084 15.4093C7.04001 15.3085 6.93918 15.2168 6.83834 15.116C5.91138 14.1828 5.05643 13.1808 4.28084 12.1185C3.52918 11.0735 2.92418 10.0285 2.48418 8.99266C2.05334 7.94766 1.83334 6.9485 1.83334 5.99516C1.83334 5.37183 1.94334 4.776 2.16334 4.226C2.38334 3.66683 2.73168 3.1535 3.21751 2.69516C3.80418 2.11766 4.44584 1.8335 5.12418 1.8335C5.38084 1.8335 5.63751 1.8885 5.86668 1.9985C6.10501 2.1085 6.31584 2.2735 6.48084 2.51183L8.60751 5.50933C8.77251 5.7385 8.89168 5.94933 8.97418 6.151C9.05668 6.3435 9.10251 6.536 9.10251 6.71016C9.10251 6.93016 9.03834 7.15016 8.91001 7.361C8.79084 7.57183 8.61668 7.79183 8.39668 8.01183L7.70001 8.736C7.59918 8.83683 7.55334 8.956 7.55334 9.10266C7.55334 9.176 7.56251 9.24016 7.58084 9.3135C7.60834 9.38683 7.63584 9.44183 7.65418 9.49683C7.81918 9.79933 8.10334 10.1935 8.50668 10.6702C8.91918 11.1468 9.35918 11.6327 9.83584 12.1185C9.92751 12.2102 10.0283 12.3018 10.12 12.3935C10.4867 12.751 10.4958 13.3377 10.1292 13.7043ZM20.1392 16.8027C20.138 17.1486 20.0597 17.4899 19.91 17.8018C19.7542 18.1318 19.5525 18.4435 19.2867 18.7368C18.8375 19.2318 18.3425 19.5893 17.7833 19.8185C17.7742 19.8185 17.765 19.8277 17.7558 19.8277C17.215 20.0477 16.6283 20.1668 15.9958 20.1668C15.0608 20.1668 14.0617 19.9468 13.0075 19.4977C11.9533 19.0485 10.8992 18.4435 9.85418 17.6827C9.49668 17.4168 9.13918 17.151 8.80001 16.8668L11.7975 13.8693C12.0542 14.0618 12.2833 14.2085 12.4758 14.3093C12.5217 14.3277 12.5767 14.3552 12.6408 14.3827C12.7142 14.4102 12.7875 14.4193 12.87 14.4193C13.0258 14.4193 13.145 14.3643 13.2458 14.2635L13.9425 13.576C14.1717 13.3468 14.3917 13.1727 14.6025 13.0627C14.8133 12.9343 15.0242 12.8702 15.2533 12.8702C15.4275 12.8702 15.6108 12.9068 15.8125 12.9893C16.0142 13.0718 16.225 13.191 16.4542 13.3468L19.4883 15.501C19.7267 15.666 19.8917 15.8585 19.9925 16.0877C20.0842 16.3168 20.1392 16.546 20.1392 16.8027Z" fill="#629948"/>
</g>
</svg>
