<svg width="20" height="20" viewBox="0 0 20 20" fill="none" xmlns="http://www.w3.org/2000/svg">
<g id="vuesax/outline/export">
<g id="export">
<path id="Vector" d="M10 18.9582C5.05833 18.9582 1.04166 14.9415 1.04166 9.99984C1.04166 5.05817 5.05833 1.0415 10 1.0415C10.3417 1.0415 10.625 1.32484 10.625 1.6665C10.625 2.00817 10.3417 2.2915 10 2.2915C5.75 2.2915 2.29166 5.74984 2.29166 9.99984C2.29166 14.2498 5.75 17.7082 10 17.7082C14.25 17.7082 17.7083 14.2498 17.7083 9.99984C17.7083 9.65817 17.9917 9.37484 18.3333 9.37484C18.675 9.37484 18.9583 9.65817 18.9583 9.99984C18.9583 14.9415 14.9417 18.9582 10 18.9582Z" fill="white"/>
<path id="Vector_2" d="M10.8333 9.7917C10.675 9.7917 10.5167 9.73337 10.3917 9.60837C10.15 9.3667 10.15 8.9667 10.3917 8.72503L17.225 1.8917C17.4667 1.65003 17.8667 1.65003 18.1083 1.8917C18.35 2.13337 18.35 2.53337 18.1083 2.77503L11.275 9.60837C11.15 9.73337 10.9917 9.7917 10.8333 9.7917Z" fill="white"/>
<path id="Vector_3" d="M18.3333 6.3165C17.9917 6.3165 17.7083 6.03317 17.7083 5.6915V2.2915H14.3083C13.9667 2.2915 13.6833 2.00817 13.6833 1.6665C13.6833 1.32484 13.9667 1.0415 14.3083 1.0415H18.3333C18.675 1.0415 18.9583 1.32484 18.9583 1.6665V5.6915C18.9583 6.03317 18.675 6.3165 18.3333 6.3165Z" fill="white"/>
</g>
</g>
</svg>
