<svg width="22" height="22" viewBox="0 0 22 22" fill="none" xmlns="http://www.w3.org/2000/svg">
<g id="vuesax/bold/location">
<g id="vuesax/bold/location_2">
<path id="Vector" d="M18.9017 7.74567C17.9392 3.51067 14.245 1.604 11 1.604C11 1.604 11 1.604 10.9908 1.604C7.755 1.604 4.05166 3.5015 3.08916 7.7365C2.01666 12.4665 4.91333 16.4723 7.535 18.9932C8.50666 19.9282 9.75333 20.3957 11 20.3957C12.2467 20.3957 13.4933 19.9282 14.4558 18.9932C17.0775 16.4723 19.9742 12.4757 18.9017 7.74567ZM11 12.3382C9.405 12.3382 8.1125 11.0457 8.1125 9.45067C8.1125 7.85567 9.405 6.56317 11 6.56317C12.595 6.56317 13.8875 7.85567 13.8875 9.45067C13.8875 11.0457 12.595 12.3382 11 12.3382Z" fill="#629948"/>
</g>
</g>
</svg>
