<svg width="34" height="34" viewBox="0 0 34 34" fill="none" xmlns="http://www.w3.org/2000/svg">
<g id="vuesax/bold/direct-right">
<g id="vuesax/bold/direct-right_2">
<path id="Vector" d="M12.2552 26.3178L11.5989 22.4828C11.4119 21.4168 10.7433 20.5058 9.7824 20.0079L6.31469 18.2238C3.35028 16.7031 4.07428 12.2643 7.37551 11.7765L9.1022 11.5264C9.34464 11.4849 9.58819 11.5294 9.79092 11.6535L21.8628 18.4849C22.3559 18.768 22.5475 19.384 22.2983 19.8895L18.7159 27.2448C17.2688 30.2419 12.8172 29.6018 12.2552 26.3178Z" fill="#DD3333"/>
<path id="Vector_2" d="M22.3789 17.126L14.4728 12.6579C13.5839 12.1566 13.8339 10.8072 14.8434 10.6616L21.2938 9.69835C24.0322 9.28869 26.103 12.1103 24.8912 14.5999L23.8797 16.6695C23.602 17.2207 22.9258 17.4317 22.3789 17.126Z" fill="#DD3333"/>
</g>
</g>
</svg>
