<svg width="22" height="22" viewBox="0 0 22 22" fill="none" xmlns="http://www.w3.org/2000/svg">
<g id="vuesax/bold/sms">
<g id="vuesax/bold/sms_2">
<g id="sms">
<path id="Vector" d="M15.5833 3.2085H6.41668C3.66668 3.2085 1.83334 4.5835 1.83334 7.79183V14.2085C1.83334 17.4168 3.66668 18.7918 6.41668 18.7918H15.5833C18.3333 18.7918 20.1667 17.4168 20.1667 14.2085V7.79183C20.1667 4.5835 18.3333 3.2085 15.5833 3.2085ZM16.0142 8.791L13.145 11.0827C12.54 11.5685 11.77 11.8068 11 11.8068C10.23 11.8068 9.45084 11.5685 8.85501 11.0827L5.98584 8.791C5.69251 8.55266 5.64668 8.11266 5.87584 7.81933C6.11418 7.526 6.54501 7.471 6.83834 7.70933L9.70751 10.001C10.4042 10.5602 11.5867 10.5602 12.2833 10.001L15.1525 7.70933C15.4458 7.471 15.8858 7.51683 16.115 7.81933C16.3533 8.11266 16.3075 8.55266 16.0142 8.791Z" fill="#629948"/>
</g>
</g>
</g>
</svg>
